<svg viewBox="0 0 500 500" xmlns="http://www.w3.org/2000/svg">
  <path style="stroke: rgb(0, 0, 0); fill: rgb(92, 169, 4);" d="M 168.801 123.399 C 168.053 121.903 124.924 173.015 125.728 174.622 C 126.932 175.425 193.001 147.681 189.756 145.518 C 187.655 145.518 218.371 183.935 222.351 183.935 C 222.833 183.935 230.363 142.608 229.336 142.608 C 226.573 144.45 269.973 164.799 271.828 163.562 C 272.969 163.562 256.285 119.324 254.365 119.324 C 255.506 119.324 296.449 90.221 294.529 90.221 C 297.626 90.221 245.253 93.714 242.142 94.296 C 239.031 94.878 219.441 96.042 219.441 96.042 L 224.098 73.923 L 225.262 45.402 L 211.292 39.58 L 197.905 45.984 L 206.636 94.878 C 208.933 92.581 143.196 89.051 142.608 89.639 C 143.93 89.198 171.967 122.344 168.801 123.399 Z"/>
</svg>